<svg version="1.1" id="Layer_1" xmlns="http://www.w3.org/2000/svg" xmlns:xlink="http://www.w3.org/1999/xlink" x="0px" y="0px"
	 width="100%" viewBox="0 0 496 496" enable-background="new 0 0 496 496" xml:space="preserve">
<path fill="#000000" opacity="1.000000" stroke="none" 
	d="
M391.534180,307.409485 
	C312.741150,307.412292 234.390732,307.412292 156.040298,307.412292 
	C155.975494,306.983673 155.910675,306.555023 155.845871,306.126404 
	C162.868607,305.129791 169.358734,302.720062 174.946457,298.525360 
	C189.605453,287.520874 194.761932,258.993561 172.386353,247.613556 
	C165.704483,244.215225 158.881592,241.269257 151.667343,239.203064 
	C147.965988,238.143005 144.582718,236.400223 141.704056,233.751938 
	C138.500168,230.804398 137.592987,226.914841 139.179276,223.286087 
	C140.638184,219.948776 143.721634,217.628601 147.911728,217.631927 
	C153.435944,217.636322 158.140289,219.125793 160.681290,224.501389 
	C161.912811,227.106720 163.415878,227.191574 165.854111,226.043396 
	C170.661346,223.779617 175.501556,221.442657 180.561554,219.903351 
	C184.751007,218.628876 184.436172,216.736542 182.790527,213.732117 
	C177.137299,203.411148 167.895493,198.530487 156.797852,196.424545 
	C155.664551,196.209488 154.501160,196.155670 153.356262,195.994797 
	C153.247711,195.979538 153.171738,195.732391 152.764328,195.108429 
	C233.703201,195.108429 314.326050,195.108429 394.948883,195.108429 
	C377.159180,197.479355 362.368286,205.025833 351.748383,219.625107 
	C344.011627,230.260925 341.313721,242.513794 342.393982,255.516113 
	C343.539429,269.302673 349.299042,280.804932 359.427063,290.432922 
	C369.498138,300.006805 381.644104,304.326141 395.178711,306.103119 
	C394.271729,307.797089 392.990723,307.188263 391.534180,307.409485 
M326.537048,197.377731 
	C323.870514,197.384445 321.204010,197.398712 318.537476,197.395584 
	C316.239685,197.392883 314.942963,198.391968 314.277435,200.724686 
	C309.411804,217.778854 304.487915,234.815536 300.312744,252.057495 
	C298.909149,257.853851 297.452454,263.637329 295.935608,269.768066 
	C294.298889,268.462830 293.981262,267.377197 293.564178,266.277893 
	C286.977295,248.916870 280.259064,231.605087 273.786407,214.201874 
	C272.410004,210.501083 270.435486,209.183731 266.453918,209.234039 
	C262.566254,209.283157 260.685150,210.946457 259.450348,214.246140 
	C253.754547,229.466888 248.096237,244.702911 242.209549,259.849915 
	C240.962875,263.057678 240.590561,266.896423 237.163879,269.440033 
	C231.770020,246.653198 225.710770,224.449234 219.714874,202.227402 
	C218.791473,198.805084 217.367996,197.100739 213.590286,197.307663 
	C208.605133,197.580719 203.593613,197.338867 198.594360,197.397491 
	C193.257080,197.460068 193.086456,197.867950 194.529053,202.782852 
	C203.210556,232.360718 211.950500,261.922485 220.407745,291.564697 
	C224.394608,305.538513 224.129333,305.614105 238.677887,305.608582 
	C239.511185,305.608276 240.349899,305.550690 241.176727,305.624603 
	C243.308228,305.815277 244.540298,304.866821 245.368683,302.903046 
	C249.819077,292.352936 254.321655,281.824493 258.870209,271.316254 
	C261.214966,265.899292 263.692474,260.539764 266.130066,255.109619 
	C267.839417,256.090729 268.211334,257.419739 268.729065,258.623871 
	C273.775543,270.361328 278.831177,282.095001 283.827362,293.853912 
	C288.812073,305.585724 288.796570,305.263123 301.495117,305.756378 
	C307.122803,305.975006 309.266357,303.961365 310.727936,298.798035 
	C318.184082,272.457458 326.008636,246.221313 333.673950,219.939774 
	C335.748108,212.828323 337.716644,205.686050 339.783112,198.383163 
	C335.422913,196.640259 331.407928,197.688461 326.537048,197.377731 
z"/>
<path fill="#000000" opacity="1.000000" stroke="none" 
	d="
M120.656982,206.666595 
	C110.317139,220.410278 113.014915,239.494034 123.078453,247.874588 
	C129.504120,253.225616 136.907379,257.003235 144.945679,259.461304 
	C148.913864,260.674774 152.972366,261.731232 156.553726,263.892822 
	C162.499481,267.481506 164.471436,272.239532 162.233353,277.080109 
	C159.827271,282.284027 152.771698,285.283417 147.083084,283.520599 
	C140.377335,281.442596 137.176025,278.415527 132.884140,269.826904 
	C126.103523,272.633240 119.246124,275.388397 112.463005,278.315674 
	C109.334839,279.665649 110.970573,281.956512 111.907837,283.764404 
	C117.600586,294.744995 126.836006,301.270294 138.539337,304.587311 
	C140.686020,305.195709 142.874512,305.656708 144.946915,306.957397 
	C125.974548,306.957397 107.002174,306.957397 86.644485,306.957397 
	C95.001747,303.565826 99.758751,298.601501 98.497375,290.374603 
	C97.644333,284.810944 94.323181,280.851990 88.509048,279.134644 
	C80.837769,276.868744 75.880981,280.554932 71.713013,286.409210 
	C70.077286,284.818787 70.688858,283.068420 70.686523,281.531464 
	C70.645699,254.544342 70.747818,227.556580 70.578743,200.570465 
	C70.550797,196.109329 71.719269,194.500259 76.419907,194.550446 
	C97.573753,194.776321 118.731407,194.635208 139.887589,194.676529 
	C141.265060,194.679214 142.832794,194.136063 144.584366,195.951447 
	C135.262558,196.938934 127.210220,199.856705 120.656982,206.666595 
z"/>
<path fill="#000000" opacity="1.000000" stroke="none" 
	d="
M398.249603,217.720184 
	C407.649231,217.921555 416.062378,219.948273 423.767059,225.713547 
	C427.432892,219.444839 429.611389,212.846802 432.366760,206.537003 
	C433.236481,204.545395 431.317535,203.695602 429.839203,202.867523 
	C423.223694,199.161789 416.080841,197.207809 408.586823,196.397598 
	C407.632996,196.294479 406.543030,196.566986 405.602966,194.801224 
	C414.669067,194.801224 423.403564,194.694000 432.132599,194.865784 
	C434.792694,194.918121 434.291626,197.413223 434.308167,199.132339 
	C434.373718,205.956329 434.336395,212.781296 434.336609,219.605911 
	C434.337311,243.076035 434.345642,266.546143 434.322388,290.016235 
	C434.320648,291.752655 434.666168,293.579132 433.472382,295.900177 
	C429.049408,289.876373 428.429626,282.516785 423.923828,276.923859 
	C418.425446,280.398743 412.679810,282.400146 406.387817,283.680786 
	C391.460876,286.718994 372.338928,275.954834 367.877472,260.824402 
	C362.253937,241.752914 373.723663,222.322540 393.432343,218.679825 
	C394.897034,218.409103 396.348083,218.064621 398.249603,217.720184 
z"/>
<path fill="#000000" opacity="1.000000" stroke="none" 
	d="
M431.715759,307.261292 
	C423.023254,307.306885 414.797791,307.306885 406.572357,307.306885 
	C406.503357,306.879669 406.434357,306.452423 406.365356,306.025208 
	C416.038116,305.421417 424.888031,302.216309 433.919556,297.596832 
	C433.980652,301.351685 436.036011,304.711884 431.715759,307.261292 
z"/>
<path fill="#000000" opacity="1.000000" stroke="none" 
	d="
M70.973152,299.389496 
	C74.337471,301.631805 77.100929,304.788483 81.601662,306.212250 
	C72.844612,309.289337 70.480835,307.729858 70.973152,299.389496 
z"/>
</svg>