<svg version="1.1" id="Layer_1" xmlns="http://www.w3.org/2000/svg" xmlns:xlink="http://www.w3.org/1999/xlink" x="0px" y="0px"
	 width="100%" viewBox="0 0 500 500" enable-background="new 0 0 500 500" xml:space="preserve">
<path fill="#FFFFFF" opacity="1.000000" stroke="none" 
	d="
M279.000000,501.000000 
	C186.000015,501.000000 93.500046,501.000000 1.000050,501.000000 
	C1.000033,334.333405 1.000033,167.666794 1.000017,1.000139 
	C167.666565,1.000093 334.333130,1.000093 500.999756,1.000046 
	C500.999847,167.666519 500.999847,334.333038 500.999939,500.999786 
	C427.166656,501.000000 353.333344,501.000000 279.000000,501.000000 
M71.239151,300.253448 
	C71.147202,302.353729 71.055244,304.454041 70.951019,306.834717 
	C74.826393,306.834717 78.412117,306.834717 82.825081,306.972412 
	C84.217155,306.926300 85.609230,306.880188 87.927193,306.988251 
	C107.284370,306.936890 126.641541,306.885498 146.889984,306.973083 
	C149.593765,306.926758 152.297562,306.880432 155.927231,306.988251 
	C234.790665,306.992157 313.654114,306.996765 392.517548,306.993103 
	C393.677917,306.993042 394.838318,306.889404 396.896637,306.973114 
	C399.931854,306.927002 402.967072,306.880890 406.930817,306.988220 
	C415.930878,306.988220 424.930939,306.988220 433.833893,306.988220 
	C433.833893,303.928772 433.833893,301.464813 433.972382,298.174805 
	C433.926239,296.782928 433.880066,295.391022 433.988190,293.071167 
	C433.936951,264.381378 433.885712,235.691574 433.971771,206.257248 
	C433.925812,205.504547 433.879883,204.751831 433.988190,203.089844 
	C433.988190,200.502701 433.988190,197.915543 433.988190,195.165085 
	C424.048889,195.165085 414.525665,195.165085 404.109009,195.027313 
	C401.405548,195.073486 398.702087,195.119675 395.072754,195.011734 
	C315.209351,195.007828 235.345947,195.003220 155.482544,195.006912 
	C154.322144,195.006958 153.161728,195.110580 151.134552,195.027008 
	C149.089249,195.073288 147.043930,195.119568 144.072739,195.011734 
	C119.834534,195.011734 95.596329,195.011734 71.308647,195.011734 
	C71.160934,195.879562 71.013496,196.342056 71.013298,196.804596 
	C71.001259,225.252945 70.991035,253.701294 71.042259,282.149567 
	C71.044075,283.155762 71.666359,284.160889 71.953659,285.988892 
	C71.968941,290.603760 71.984215,295.218597 71.239151,300.253448 
z"/>
<path fill="#000000" opacity="1.000000" stroke="none" 
	d="
M152.001328,195.165878 
	C153.161728,195.110580 154.322144,195.006958 155.482544,195.006912 
	C235.345947,195.003220 315.209351,195.007828 395.313293,195.438629 
	C376.362152,196.754379 361.322266,205.169876 350.516754,220.999008 
	C342.039673,233.417191 340.173553,247.205307 343.024750,261.703094 
	C346.926758,281.543793 358.785095,294.872314 377.475311,301.993042 
	C383.403992,304.251831 389.810730,305.255890 395.998688,306.834137 
	C394.838318,306.889404 393.677917,306.993042 392.517548,306.993103 
	C313.654114,306.996765 234.790665,306.992157 155.673462,306.568665 
	C160.924438,304.435760 166.867599,303.533936 171.845337,300.844971 
	C183.213089,294.704254 187.900345,284.092896 187.893799,271.626373 
	C187.887589,259.767365 181.801117,251.347717 171.005905,246.553726 
	C164.828796,243.810577 158.439240,241.549576 152.195358,238.951294 
	C149.390503,237.784103 146.578568,236.533432 143.998810,234.948029 
	C139.475662,232.168335 137.468948,226.736786 139.343201,223.183075 
	C141.610016,218.885025 148.565063,216.219131 153.067245,218.796188 
	C156.818954,220.943726 159.839767,224.368118 163.585953,227.570297 
	C170.152237,224.787155 177.642380,221.612427 185.315292,218.360245 
	C182.380386,210.020630 177.322021,203.881119 169.775024,200.525345 
	C164.165237,198.030945 157.947998,196.902634 152.001328,195.165878 
M337.054443,208.755783 
	C338.281769,204.916885 339.509125,201.077988 340.812927,197.000000 
	C336.674347,197.000000 332.846649,196.947754 329.020966,197.013443 
	C324.385651,197.093018 318.758423,195.730606 315.422150,197.880859 
	C312.592255,199.704697 312.199036,205.580414 311.094025,209.760056 
	C307.296600,224.123810 303.693909,238.538925 299.944153,252.915466 
	C298.607117,258.041748 297.062500,263.113892 295.239319,269.523071 
	C287.541962,249.560089 280.235809,231.303253 273.580688,212.812088 
	C272.117676,208.747101 269.927216,209.046341 266.946075,208.962006 
	C263.563477,208.866333 260.823212,208.894470 259.358582,213.042145 
	C254.795120,225.965515 249.839432,238.751053 244.981613,251.569473 
	C242.866669,257.150177 240.619568,262.680786 238.432495,268.234161 
	C238.106369,268.127838 237.780258,268.021484 237.454132,267.915161 
	C231.233490,244.269836 225.012848,220.624512 218.845840,197.183075 
	C209.909027,197.183075 201.610962,197.183075 192.486511,197.183075 
	C203.199951,233.688461 213.798828,269.803497 224.421448,305.999451 
	C230.531113,305.999451 236.355896,306.105225 242.170395,305.907959 
	C243.299255,305.869659 244.952515,304.910156 245.402649,303.932831 
	C248.098877,298.079041 250.477676,292.080139 253.031342,286.159454 
	C257.464111,275.881989 261.946716,265.626038 266.606262,254.905914 
	C273.537933,271.098816 280.371613,286.781342 286.897461,302.590942 
	C287.957855,305.159851 288.996002,306.189911 291.743927,306.055939 
	C296.064514,305.845245 300.410553,305.842865 304.731140,306.053192 
	C307.803741,306.202759 309.241089,305.374664 310.141785,302.087524 
	C314.576447,285.903229 319.365814,269.815826 324.064453,253.704254 
	C328.355164,238.991470 332.690094,224.291565 337.054443,208.755783 
z"/>
<path fill="#000000" opacity="1.000000" stroke="none" 
	d="
M145.998718,306.834106 
	C126.641541,306.885498 107.284370,306.936890 87.642715,306.586975 
	C93.542625,305.386414 98.652710,300.197449 98.999313,294.364899 
	C99.427635,287.157135 95.924110,281.148224 90.060226,279.033295 
	C82.918686,276.457581 76.634216,278.591705 71.999458,285.166504 
	C71.666359,284.160889 71.044075,283.155762 71.042259,282.149567 
	C70.991035,253.701294 71.001259,225.252945 71.013298,196.804596 
	C71.013496,196.342056 71.160934,195.879562 71.308647,195.011734 
	C95.596329,195.011734 119.834534,195.011734 144.320129,195.434845 
	C141.662659,196.239136 138.682114,196.325378 135.864914,197.048187 
	C113.677444,202.740692 108.904549,226.777176 117.866501,242.202316 
	C123.221718,251.419601 132.743393,255.369904 142.236847,258.973206 
	C146.743530,260.683746 151.470840,261.929047 155.763840,264.059052 
	C161.990265,267.148376 164.107300,272.181396 161.966721,277.054230 
	C159.820572,281.939758 152.670425,284.580597 147.033691,283.102478 
	C139.498825,281.126587 135.908554,275.492096 133.357452,269.183044 
	C126.612770,271.889801 120.187950,274.474030 113.758224,277.045959 
	C110.849693,278.209351 108.976273,279.481903 110.951393,283.217224 
	C114.379120,289.699677 118.495621,295.680206 125.124710,298.874542 
	C131.809082,302.095581 139.019028,304.225922 145.998718,306.834106 
z"/>
<path fill="#FFD700" opacity="1.000000" stroke="none" 
	d="
M146.444351,306.903595 
	C139.019028,304.225922 131.809082,302.095581 125.124710,298.874542 
	C118.495621,295.680206 114.379120,289.699677 110.951393,283.217224 
	C108.976273,279.481903 110.849693,278.209351 113.758224,277.045959 
	C120.187950,274.474030 126.612770,271.889801 133.357452,269.183044 
	C135.908554,275.492096 139.498825,281.126587 147.033691,283.102478 
	C152.670425,284.580597 159.820572,281.939758 161.966721,277.054230 
	C164.107300,272.181396 161.990265,267.148376 155.763840,264.059052 
	C151.470840,261.929047 146.743530,260.683746 142.236847,258.973206 
	C132.743393,255.369904 123.221718,251.419601 117.866501,242.202316 
	C108.904549,226.777176 113.677444,202.740692 135.864914,197.048187 
	C138.682114,196.325378 141.662659,196.239136 144.783081,195.511902 
	C147.043930,195.119568 149.089249,195.073288 151.567932,195.096436 
	C157.947998,196.902634 164.165237,198.030945 169.775024,200.525345 
	C177.322021,203.881119 182.380386,210.020630 185.315292,218.360245 
	C177.642380,221.612427 170.152237,224.787155 163.585953,227.570297 
	C159.839767,224.368118 156.818954,220.943726 153.067245,218.796188 
	C148.565063,216.219131 141.610016,218.885025 139.343201,223.183075 
	C137.468948,226.736786 139.475662,232.168335 143.998810,234.948029 
	C146.578568,236.533432 149.390503,237.784103 152.195358,238.951294 
	C158.439240,241.549576 164.828796,243.810577 171.005905,246.553726 
	C181.801117,251.347717 187.887589,259.767365 187.893799,271.626373 
	C187.900345,284.092896 183.213089,294.704254 171.845337,300.844971 
	C166.867599,303.533936 160.924438,304.435760 155.210510,306.491608 
	C152.297562,306.880432 149.593765,306.926758 146.444351,306.903595 
z"/>
<path fill="#FFD700" opacity="1.000000" stroke="none" 
	d="
M396.447662,306.903625 
	C389.810730,305.255890 383.403992,304.251831 377.475311,301.993042 
	C358.785095,294.872314 346.926758,281.543793 343.024750,261.703094 
	C340.173553,247.205307 342.039673,233.417191 350.516754,220.999008 
	C361.322266,205.169876 376.362152,196.754379 395.776245,195.515686 
	C398.702087,195.119675 401.405548,195.073486 404.776642,195.445786 
	C408.029694,196.114792 410.755859,195.925537 413.173889,196.699219 
	C420.127289,198.924026 426.956146,201.538040 433.833923,203.999130 
	C433.879883,204.751831 433.925812,205.504547 433.583252,206.770401 
	C430.107300,213.821121 427.019836,220.358688 423.896545,226.972061 
	C409.634521,214.628494 389.917816,216.213821 377.782104,226.747314 
	C365.390076,237.503311 362.265320,256.572174 374.289886,271.572662 
	C380.144684,278.876434 388.436218,282.576416 397.497345,283.637390 
	C407.312378,284.786652 416.415405,281.973480 424.562622,275.586395 
	C425.880493,278.833313 426.841583,281.768524 428.232971,284.483124 
	C429.908997,287.753021 431.950562,290.835541 433.833923,293.999146 
	C433.880066,295.391022 433.926239,296.782928 433.524292,298.588013 
	C430.543579,300.000793 428.076569,301.241486 425.465302,301.952423 
	C419.012817,303.709167 412.494293,305.223206 406.002289,306.834808 
	C402.967072,306.880890 399.931854,306.927002 396.447662,306.903625 
z"/>
<path fill="#000000" opacity="1.000000" stroke="none" 
	d="
M433.911072,293.535156 
	C431.950562,290.835541 429.908997,287.753021 428.232971,284.483124 
	C426.841583,281.768524 425.880493,278.833313 424.562622,275.586395 
	C416.415405,281.973480 407.312378,284.786652 397.497345,283.637390 
	C388.436218,282.576416 380.144684,278.876434 374.289886,271.572662 
	C362.265320,256.572174 365.390076,237.503311 377.782104,226.747314 
	C389.917816,216.213821 409.634521,214.628494 423.896545,226.972061 
	C427.019836,220.358688 430.107300,213.821121 433.514648,207.142670 
	C433.885712,235.691574 433.936951,264.381378 433.911072,293.535156 
z"/>
<path fill="#FFD700" opacity="1.000000" stroke="none" 
	d="
M71.976562,285.577698 
	C76.634216,278.591705 82.918686,276.457581 90.060226,279.033295 
	C95.924110,281.148224 99.427635,287.157135 98.999313,294.364899 
	C98.652710,300.197449 93.542625,305.386414 87.179771,306.509888 
	C85.609230,306.880188 84.217155,306.926300 82.241974,306.584381 
	C78.439072,304.075409 75.219284,301.954437 71.999489,299.833466 
	C71.984215,295.218597 71.968941,290.603760 71.976562,285.577698 
z"/>
<path fill="#000000" opacity="1.000000" stroke="none" 
	d="
M433.911072,203.544495 
	C426.956146,201.538040 420.127289,198.924026 413.173889,196.699219 
	C410.755859,195.925537 408.029694,196.114792 405.223358,195.514679 
	C414.525665,195.165085 424.048889,195.165085 433.988190,195.165085 
	C433.988190,197.915543 433.988190,200.502701 433.911072,203.544495 
z"/>
<path fill="#000000" opacity="1.000000" stroke="none" 
	d="
M406.466553,306.911499 
	C412.494293,305.223206 419.012817,303.709167 425.465302,301.952423 
	C428.076569,301.241486 430.543579,300.000793 433.455078,299.001038 
	C433.833893,301.464813 433.833893,303.928772 433.833893,306.988220 
	C424.930939,306.988220 415.930878,306.988220 406.466553,306.911499 
z"/>
<path fill="#000000" opacity="1.000000" stroke="none" 
	d="
M71.619324,300.043457 
	C75.219284,301.954437 78.439072,304.075409 81.828354,306.515533 
	C78.412117,306.834717 74.826393,306.834717 70.951019,306.834717 
	C71.055244,304.454041 71.147202,302.353729 71.619324,300.043457 
z"/>
<path fill="#FFD700" opacity="1.000000" stroke="none" 
	d="
M337.029999,209.170883 
	C332.690094,224.291565 328.355164,238.991470 324.064453,253.704254 
	C319.365814,269.815826 314.576447,285.903229 310.141785,302.087524 
	C309.241089,305.374664 307.803741,306.202759 304.731140,306.053192 
	C300.410553,305.842865 296.064514,305.845245 291.743927,306.055939 
	C288.996002,306.189911 287.957855,305.159851 286.897461,302.590942 
	C280.371613,286.781342 273.537933,271.098816 266.606262,254.905914 
	C261.946716,265.626038 257.464111,275.881989 253.031342,286.159454 
	C250.477676,292.080139 248.098877,298.079041 245.402649,303.932831 
	C244.952515,304.910156 243.299255,305.869659 242.170395,305.907959 
	C236.355896,306.105225 230.531113,305.999451 224.421448,305.999451 
	C213.798828,269.803497 203.199951,233.688461 192.486511,197.183075 
	C201.610962,197.183075 209.909027,197.183075 218.845840,197.183075 
	C225.012848,220.624512 231.233490,244.269836 237.454132,267.915161 
	C237.780258,268.021484 238.106369,268.127838 238.432495,268.234161 
	C240.619568,262.680786 242.866669,257.150177 244.981613,251.569473 
	C249.839432,238.751053 254.795120,225.965515 259.358582,213.042145 
	C260.823212,208.894470 263.563477,208.866333 266.946075,208.962006 
	C269.927216,209.046341 272.117676,208.747101 273.580688,212.812088 
	C280.235809,231.303253 287.541962,249.560089 295.239319,269.523071 
	C297.062500,263.113892 298.607117,258.041748 299.944153,252.915466 
	C303.693909,238.538925 307.296600,224.123810 311.094025,209.760056 
	C312.199036,205.580414 312.592255,199.704697 315.422150,197.880859 
	C318.758423,195.730606 324.385651,197.093018 329.020966,197.013443 
	C332.846649,196.947754 336.674347,197.000000 340.812927,197.000000 
	C339.509125,201.077988 338.281769,204.916885 337.029999,209.170883 
z"/>
</svg>